<svg width="24" height="24" viewBox="0 0 24 24" fill="none" xmlns="http://www.w3.org/2000/svg">
<path fill-rule="evenodd" clip-rule="evenodd" d="M1 12C1 5.92487 5.92487 1 12 1C18.0751 1 23 5.92487 23 12C23 18.0751 18.0751 23 12 23C5.92487 23 1 18.0751 1 12ZM12 3C7.02944 3 3 7.02944 3 12C3 16.9706 7.02944 21 12 21C16.9706 21 21 16.9706 21 12C21 7.02944 16.9706 3 12 3Z" fill="#00826C"/>
<path d="M12.5584 14.0034L13.3247 7.48975C13.418 6.69677 12.7984 6.00002 12 6.00002C11.2016 6.00002 10.582 6.69677 10.6753 7.48975L11.4416 14.0034C11.4749 14.2866 11.7149 14.5 12 14.5C12.2851 14.5 12.5251 14.2866 12.5584 14.0034Z" fill="#00826C"/>
<circle cx="12" cy="17" r="1" fill="#00826C"/>
</svg>
