<svg width="20" height="16" viewBox="0 0 20 16" fill="none" xmlns="http://www.w3.org/2000/svg">
<path d="M3.97619 3.38095H18.8571L16.969 9.9881C16.8268 10.4855 16.5264 10.923 16.1134 11.2344C15.7003 11.5459 15.1971 11.7143 14.6798 11.7143H6.70357C6.11722 11.7146 5.55136 11.4986 5.11443 11.1076C4.67749 10.7165 4.40021 10.178 4.33571 9.59524L3.38095 1H1" stroke="#00826C" stroke-width="1.19048" stroke-linecap="round" stroke-linejoin="round"/>
<path d="M6.35722 15.881C7.01471 15.881 7.5477 15.348 7.5477 14.6905C7.5477 14.033 7.01471 13.5 6.35722 13.5C5.69974 13.5 5.16675 14.033 5.16675 14.6905C5.16675 15.348 5.69974 15.881 6.35722 15.881Z" fill="#00826C"/>
<path d="M15.8812 15.881C16.5386 15.881 17.0716 15.348 17.0716 14.6905C17.0716 14.033 16.5386 13.5 15.8812 13.5C15.2237 13.5 14.6907 14.033 14.6907 14.6905C14.6907 15.348 15.2237 15.881 15.8812 15.881Z" fill="#00826C"/>
</svg>
