<svg width="23" height="22" viewBox="0 0 23 22" fill="none" xmlns="http://www.w3.org/2000/svg">
<path d="M5.125 6.16675H19.4896C19.7806 6.16676 20.0685 6.22776 20.3345 6.34582C20.6006 6.46387 20.8389 6.63637 21.0342 6.85218C21.2295 7.06799 21.3774 7.32233 21.4684 7.59881C21.5594 7.87528 21.5915 8.16776 21.5625 8.45737L20.9375 14.7074C20.8861 15.2214 20.6455 15.6981 20.2625 16.0447C19.8794 16.3914 19.3812 16.5834 18.8646 16.5834H8.91667C8.43487 16.5836 7.96789 16.4168 7.59525 16.1114C7.22262 15.806 6.96735 15.3809 6.87292 14.9084L5.125 6.16675Z" stroke="#00826C" stroke-width="2.08333" stroke-linejoin="round"/>
<path d="M5.125 6.16667L4.28125 2.78854C4.22482 2.56328 4.09474 2.36334 3.91167 2.22047C3.72861 2.07761 3.50305 2.00001 3.27083 2H2M8.25 20.75H10.3333M16.5833 20.75H18.6667" stroke="#00826C" stroke-width="2.08333" stroke-linecap="round" stroke-linejoin="round"/>
</svg>
