<svg width="25" height="25" viewBox="0 0 25 25" fill="none" xmlns="http://www.w3.org/2000/svg">
<path d="M7.8125 7.03125H21.875M7.8125 12.5H21.875M7.8125 17.9688H21.875" stroke="#00826C" stroke-width="1.5625" stroke-linecap="round" stroke-linejoin="round"/>
<path d="M3.90625 7.8125C4.33772 7.8125 4.6875 7.46272 4.6875 7.03125C4.6875 6.59978 4.33772 6.25 3.90625 6.25C3.47478 6.25 3.125 6.59978 3.125 7.03125C3.125 7.46272 3.47478 7.8125 3.90625 7.8125Z" stroke="#00826C" stroke-width="1.5625" stroke-linecap="round" stroke-linejoin="round"/>
<path d="M3.90625 13.2812C4.33772 13.2812 4.6875 12.9315 4.6875 12.5C4.6875 12.0685 4.33772 11.7188 3.90625 11.7188C3.47478 11.7188 3.125 12.0685 3.125 12.5C3.125 12.9315 3.47478 13.2812 3.90625 13.2812Z" stroke="#00826C" stroke-width="1.5625" stroke-linecap="round" stroke-linejoin="round"/>
<path d="M3.90625 18.75C4.33772 18.75 4.6875 18.4002 4.6875 17.9688C4.6875 17.5373 4.33772 17.1875 3.90625 17.1875C3.47478 17.1875 3.125 17.5373 3.125 17.9688C3.125 18.4002 3.47478 18.75 3.90625 18.75Z" stroke="#00826C" stroke-width="1.5625" stroke-linecap="round" stroke-linejoin="round"/>
</svg>
