<svg width="24" height="25" viewBox="0 0 24 25" fill="none" xmlns="http://www.w3.org/2000/svg">
<path d="M21.0375 6.13226L21.0374 6.13209C21.0279 6.11776 21.0171 6.10441 21.005 6.09225C21.0049 6.09221 21.0049 6.09217 21.0048 6.09214L18.1767 3.26495C18.1766 3.26489 18.1765 3.26484 18.1765 3.26479C18.1296 3.21807 18.0662 3.19183 18 3.19183C17.9338 3.19183 17.8703 3.21809 17.8234 3.26484C17.8234 3.26488 17.8234 3.26491 17.8233 3.26495L8.61454 12.4677C8.59209 12.4973 8.57576 12.5312 8.56659 12.5673L8.56576 12.5706L8.56575 12.5705L7.5658 16.3984C7.56579 16.3984 7.56579 16.3984 7.56578 16.3984C7.56577 16.3985 7.56576 16.3985 7.56575 16.3985C7.5548 16.4407 7.55504 16.4849 7.56644 16.527C7.57787 16.569 7.6001 16.6074 7.63093 16.6382C7.66176 16.6691 7.70012 16.6913 7.7422 16.7027C7.78422 16.7141 7.8285 16.7144 7.87064 16.7034L21.0375 6.13226ZM21.0375 6.13226C21.0691 6.18033 21.0832 6.23785 21.0774 6.29512C21.0716 6.35239 21.0462 6.40589 21.0055 6.44659L21.0055 6.4466L11.8125 15.6385C11.8125 15.6385 11.8125 15.6386 11.8125 15.6386C11.7812 15.6698 11.7423 15.6922 11.6996 15.7034C11.6994 15.7035 11.6993 15.7035 11.6992 15.7035L7.8708 16.7034L21.0375 6.13226ZM20.1216 6.62271L20.4752 6.26905L20.1214 5.91552L18.3534 4.14852L17.9999 3.79517L17.6464 4.14862L9.12843 12.6666L9.0325 12.7626L8.99821 12.8938L8.37321 15.2868L8.15753 16.1126L8.98334 15.8969L11.3763 15.2719L11.5076 15.2377L11.6036 15.1417L20.1216 6.62271Z" fill="#A6A6A6" stroke="#A6A6A6"/>
<path d="M19.641 17.6012C19.9143 15.2651 20.0016 12.911 19.902 10.5612C19.8998 10.5058 19.9091 10.4506 19.9292 10.399C19.9494 10.3474 19.9799 10.3004 20.019 10.2612L21.003 9.27717C21.0299 9.25013 21.064 9.23143 21.1013 9.22332C21.1385 9.2152 21.1773 9.21802 21.213 9.23143C21.2487 9.24485 21.2798 9.26828 21.3025 9.29893C21.3252 9.32957 21.3386 9.36611 21.341 9.40417C21.5262 12.1954 21.4559 14.9977 21.131 17.7762C20.895 19.7982 19.271 21.3832 17.258 21.6082C13.7633 21.9952 10.2366 21.9952 6.74199 21.6082C4.72999 21.3832 3.10499 19.7982 2.86899 17.7762C2.45439 14.2316 2.45439 10.6508 2.86899 7.10617C3.10499 5.08417 4.72899 3.49917 6.74199 3.27417C9.39436 2.98005 12.0667 2.9088 14.731 3.06117C14.7691 3.06391 14.8057 3.07752 14.8363 3.10038C14.8669 3.12325 14.8904 3.15442 14.9038 3.19019C14.9173 3.22597 14.9202 3.26485 14.9123 3.30225C14.9044 3.33964 14.8859 3.37397 14.859 3.40117L13.866 4.39317C13.8271 4.43192 13.7807 4.46229 13.7296 4.48241C13.6785 4.50254 13.6239 4.51198 13.569 4.51017C11.3458 4.43459 9.11995 4.51982 6.90899 4.76517C6.26294 4.83668 5.65985 5.12389 5.19715 5.58042C4.73445 6.03695 4.43917 6.63613 4.35899 7.28117C3.95804 10.7095 3.95804 14.1729 4.35899 17.6012C4.43917 18.2462 4.73445 18.8454 5.19715 19.3019C5.65985 19.7584 6.26294 20.0457 6.90899 20.1172C10.264 20.4922 13.736 20.4922 17.092 20.1172C17.7381 20.0457 18.3411 19.7584 18.8038 19.3019C19.2665 18.8454 19.5608 18.2462 19.641 17.6012Z" fill="#A6A6A6"/>
<path d="M8.5 15.4412L9.5 12.9412V12.4412L18 4.44116L20 6.44116L11 14.9412L8.5 15.4412Z" fill="#A6A6A6" stroke="#A6A6A6"/>
</svg>
