<svg width="24" height="25" viewBox="0 0 24 25" fill="none" xmlns="http://www.w3.org/2000/svg">
<path d="M12 1.63184C9.9233 1.63184 7.89323 2.24765 6.16652 3.40141C4.4398 4.55516 3.09399 6.19504 2.29927 8.11366C1.50455 10.0323 1.29661 12.1435 1.70176 14.1803C2.1069 16.2171 3.10693 18.088 4.57538 19.5565C6.04383 21.0249 7.91476 22.0249 9.95156 22.4301C11.9884 22.8352 14.0996 22.6273 16.0182 21.8326C17.9368 21.0379 19.5767 19.692 20.7304 17.9653C21.8842 16.2386 22.5 14.2085 22.5 12.1318C22.5 9.34706 21.3938 6.67635 19.4246 4.70721C17.4555 2.73808 14.7848 1.63184 12 1.63184ZM12 21.1318C10.22 21.1318 8.47992 20.604 6.99987 19.6151C5.51983 18.6261 4.36628 17.2205 3.68509 15.576C3.0039 13.9315 2.82567 12.1219 3.17294 10.376C3.5202 8.63019 4.37737 7.02655 5.63604 5.76787C6.89472 4.5092 8.49836 3.65204 10.2442 3.30477C11.99 2.9575 13.7996 3.13573 15.4442 3.81692C17.0887 4.49811 18.4943 5.65166 19.4832 7.1317C20.4722 8.61175 21 10.3518 21 12.1318C21 14.5188 20.0518 16.808 18.364 18.4958C16.6761 20.1836 14.387 21.1318 12 21.1318Z" fill="#00826C"/>
<path d="M12 18.8818C12.6213 18.8818 13.125 18.3782 13.125 17.7568C13.125 17.1355 12.6213 16.6318 12 16.6318C11.3787 16.6318 10.875 17.1355 10.875 17.7568C10.875 18.3782 11.3787 18.8818 12 18.8818Z" fill="#00826C"/>
<path d="M12.75 6.13184H11.625C11.1815 6.13086 10.7422 6.21748 10.3323 6.38674C9.92236 6.556 9.54991 6.80456 9.23632 7.11815C8.92272 7.43175 8.67416 7.8042 8.5049 8.21412C8.33564 8.62404 8.24902 9.06336 8.25001 9.50684V9.88184H9.75001V9.50684C9.75001 9.00956 9.94755 8.53265 10.2992 8.18102C10.6508 7.82939 11.1277 7.63184 11.625 7.63184H12.75C13.2473 7.63184 13.7242 7.82939 14.0758 8.18102C14.4275 8.53265 14.625 9.00956 14.625 9.50684C14.625 10.0041 14.4275 10.481 14.0758 10.8327C13.7242 11.1843 13.2473 11.3818 12.75 11.3818H11.25V14.7568H12.75V12.8818C13.6451 12.8818 14.5036 12.5263 15.1365 11.8933C15.7694 11.2604 16.125 10.4019 16.125 9.50684C16.125 8.61174 15.7694 7.75329 15.1365 7.12036C14.5036 6.48742 13.6451 6.13184 12.75 6.13184Z" fill="#00826C"/>
</svg>
