<svg width="22" height="22" viewBox="0 0 22 22" fill="none" xmlns="http://www.w3.org/2000/svg">
<path d="M11 0.631836C8.9233 0.631836 6.89323 1.24765 5.16652 2.40141C3.4398 3.55516 2.09399 5.19504 1.29927 7.11366C0.504549 9.03228 0.296614 11.1435 0.701759 13.1803C1.1069 15.2171 2.10693 17.088 3.57538 18.5565C5.04383 20.0249 6.91476 21.0249 8.95156 21.4301C10.9884 21.8352 13.0996 21.6273 15.0182 20.8326C16.9368 20.0379 18.5767 18.692 19.7304 16.9653C20.8842 15.2386 21.5 13.2085 21.5 11.1318C21.5 8.34706 20.3938 5.67635 18.4246 3.70721C16.4555 1.73808 13.7848 0.631836 11 0.631836ZM11 20.1318C9.21997 20.1318 7.47992 19.604 5.99987 18.6151C4.51983 17.6261 3.36628 16.2205 2.68509 14.576C2.0039 12.9315 1.82567 11.1219 2.17294 9.37602C2.5202 7.63019 3.37737 6.02655 4.63604 4.76787C5.89472 3.5092 7.49836 2.65204 9.24419 2.30477C10.99 1.9575 12.7996 2.13573 14.4442 2.81692C16.0887 3.49811 17.4943 4.65166 18.4832 6.1317C19.4722 7.61175 20 9.3518 20 11.1318C20 13.5188 19.0518 15.808 17.364 17.4958C15.6761 19.1836 13.387 20.1318 11 20.1318Z" fill="#00826C"/>
</svg>
