<svg width="21" height="20" viewBox="0 0 21 20" fill="none" xmlns="http://www.w3.org/2000/svg">
<path fill-rule="evenodd" clip-rule="evenodd" d="M10.1323 0C3.78999 0 -0.992239 5.76224 0.176572 11.9959L0.2119 12.1843L0.226928 12.2644L0.254741 12.3411L2.18693 17.6662C2.90538 19.6462 5.23701 20.4981 7.06267 19.4475C8.04121 18.8844 8.54285 17.7529 8.303 16.6497L7.6727 13.7506C7.25958 11.8505 5.48658 10.5628 3.55186 10.7576L2.03985 10.9098C1.57569 6.19111 5.28663 2 10.1323 2C14.9779 2 18.6888 6.19111 18.2247 10.9098L16.6246 10.7487C14.7407 10.559 13.0061 11.7896 12.5626 13.6303L11.8605 16.5447C11.5812 17.7038 12.1116 18.9065 13.1557 19.4821C15.0216 20.5105 17.3651 19.6298 18.0918 17.627L20.0098 12.3411L20.0376 12.2644L20.0526 12.1843L20.0879 11.9959C21.2568 5.76225 16.4745 0 10.1323 0Z" fill="#00826C"/>
</svg>
