<svg width="19" height="20" viewBox="0 0 19 20" fill="none" xmlns="http://www.w3.org/2000/svg">
<path d="M18.6262 5.75669C18.381 5.21583 17.9807 4.75991 17.4762 4.44669L11.0062 0.446693C10.5328 0.154657 9.98745 0 9.43119 0C8.87493 0 8.32963 0.154657 7.85619 0.446693L1.38619 4.44669C0.897195 4.75638 0.508228 5.20092 0.266191 5.72669C0.025687 6.25889 -0.0542484 6.84972 0.0361914 7.42669L1.70619 17.4267C1.81895 18.1223 2.17298 18.756 2.70619 19.2167C3.24502 19.6723 3.93062 19.9175 4.63619 19.9067H7.17619C7.27505 19.908 7.37319 19.8896 7.46479 19.8523C7.55639 19.8151 7.63961 19.7599 7.70952 19.69C7.77943 19.6201 7.83463 19.5369 7.87184 19.4453C7.90906 19.3537 7.92754 19.2556 7.92619 19.1567V15.5067C7.92879 15.2927 8.01496 15.0882 8.1663 14.9368C8.31765 14.7855 8.52217 14.6993 8.73619 14.6967H10.0662C10.2833 14.6987 10.4911 14.7847 10.6462 14.9367C10.7948 15.0891 10.8774 15.2939 10.8762 15.5067V19.2267C10.8788 19.4248 10.9586 19.6141 11.0987 19.7542C11.2388 19.8943 11.4281 19.9741 11.6262 19.9767H14.2162C14.9206 19.9729 15.6012 19.7213 16.1387 19.266C16.6763 18.8108 17.0365 18.1809 17.1562 17.4867L18.8262 7.48669C18.9358 6.90306 18.866 6.29993 18.6262 5.75669ZM13.8862 9.85669H5.02619C4.76097 9.85669 4.50662 9.75134 4.31908 9.5638C4.13155 9.37626 4.02619 9.12191 4.02619 8.85669C4.02619 8.59148 4.13155 8.33712 4.31908 8.14959C4.50662 7.96205 4.76097 7.85669 5.02619 7.85669H13.9262C14.1914 7.85669 14.4458 7.96205 14.6333 8.14959C14.8208 8.33712 14.9262 8.59148 14.9262 8.85669C14.9262 9.12191 14.8208 9.37626 14.6333 9.5638C14.4458 9.75134 14.1914 9.85669 13.9262 9.85669H13.8862Z" fill="#00826C"/>
</svg>
