<svg width="20" height="21" viewBox="0 0 20 21" fill="none" xmlns="http://www.w3.org/2000/svg">
<path d="M17.3284 5.35618L10.8624 1.33818C10.5087 1.11718 10.1 1 9.68291 1C9.26583 1 8.85713 1.11718 8.50341 1.33818L2.03741 5.35618C1.67042 5.58795 1.37918 5.92196 1.19956 6.3171C1.01993 6.71224 0.959747 7.15128 1.02641 7.58018L2.69541 17.5962C2.7831 18.1208 3.05584 18.5967 3.46421 18.9376C3.87257 19.2784 4.38954 19.4617 4.92141 19.4542H7.45641V15.8042C7.45641 15.391 7.62056 14.9947 7.91274 14.7025C8.20492 14.4103 8.60121 14.2462 9.01441 14.2462H10.3494C10.7626 14.2462 11.1589 14.4103 11.4511 14.7025C11.7433 14.9947 11.9074 15.391 11.9074 15.8042V19.4992H14.4674C14.9994 19.5065 15.5164 19.323 15.9247 18.9819C16.333 18.6409 16.6058 18.1649 16.6934 17.6402L18.3624 7.62518C18.4364 7.18671 18.3773 6.73615 18.1928 6.33156C18.0083 5.92697 17.7069 5.5869 17.3274 5.35518M5.23141 9.12818H14.1344" stroke="#00826C" stroke-width="1.5" stroke-linecap="round" stroke-linejoin="round"/>
</svg>
