<svg width="24" height="24" viewBox="0 0 24 24" fill="none" xmlns="http://www.w3.org/2000/svg">
<path fill-rule="evenodd" clip-rule="evenodd" d="M9.00003 5C9.00003 3.34315 10.3432 2 12 2C13.6569 2 15 3.34315 15 5H9.00003ZM7.00003 7V8C7.00003 8.55228 7.44774 9 8.00003 9C8.55231 9 9.00003 8.55228 9.00003 8V7H15V8C15 8.55228 15.4477 9 16 9C16.5523 9 17 8.55228 17 8V7H18.249C18.7502 7 19.174 7.37103 19.2402 7.86784L20.405 16.6035C20.6448 18.402 19.2457 20 17.4313 20H6.56876C4.75439 20 3.35528 18.402 3.59508 16.6035L4.75983 7.86784C4.82607 7.37103 5.24986 7 5.75106 7H7.00003ZM7.00003 5C7.00003 2.23858 9.23861 0 12 0C14.7615 0 17 2.23858 17 5H18.249C19.7526 5 21.024 6.11309 21.2227 7.60351L22.3874 16.3392C22.7871 19.3366 20.4552 22 17.4313 22H6.56876C3.54481 22 1.21297 19.3366 1.61262 16.3392L2.77738 7.60351C2.9761 6.11309 4.24745 5 5.75106 5H7.00003Z" fill="#00826C"/>
</svg>
