<svg width="25" height="25" viewBox="0 0 25 25" fill="none" xmlns="http://www.w3.org/2000/svg">
<g clip-path="url(#clip0_123_161)">
<path fill-rule="evenodd" clip-rule="evenodd" d="M15.6252 19.7916C15.6254 20.3172 15.4269 20.8234 15.0695 21.2088C14.7121 21.5942 14.2222 21.8303 13.6981 21.8697L13.5419 21.8749H11.4585C10.9329 21.8751 10.4267 21.6766 10.0413 21.3192C9.65591 20.9618 9.41984 20.472 9.38042 19.9478L9.37521 19.7916H15.6252ZM12.5002 2.08325C14.3908 2.08322 16.2075 2.81752 17.5671 4.13125C18.9267 5.44498 19.7229 7.23543 19.7877 9.12492L19.7919 9.37492V13.2958L21.6898 17.0916C21.7726 17.2572 21.8141 17.4404 21.8106 17.6256C21.8071 17.8107 21.7588 17.9923 21.6698 18.1547C21.5809 18.3171 21.4538 18.4555 21.2997 18.5581C21.1455 18.6607 20.9688 18.7243 20.7846 18.7437L20.6648 18.7499H4.33563C4.15038 18.75 3.96788 18.7051 3.80377 18.6192C3.63966 18.5333 3.49883 18.4088 3.39335 18.2565C3.28787 18.1043 3.22088 17.9287 3.19813 17.7448C3.17538 17.561 3.19754 17.3744 3.26271 17.201L3.31063 17.0916L5.20854 13.2958V9.37492C5.20854 7.44105 5.97677 5.58638 7.34422 4.21893C8.71167 2.85148 10.5663 2.08325 12.5002 2.08325ZM12.5002 4.16659C11.1581 4.16666 9.86775 4.68486 8.89836 5.61311C7.92897 6.54135 7.35533 7.80799 7.29708 9.14888L7.29187 9.37492V13.2958C7.29189 13.5541 7.24385 13.8102 7.15021 14.051L7.07208 14.228L5.85333 16.6666H19.1481L17.9294 14.227C17.8138 13.996 17.7421 13.7456 17.7179 13.4885L17.7085 13.2958V9.37492C17.7085 7.99358 17.1598 6.66882 16.1831 5.69207C15.2063 4.71532 13.8815 4.16659 12.5002 4.16659Z" fill="#00826C"/>
</g>
<defs>
<clipPath id="clip0_123_161">
<rect width="25" height="25" fill="white"/>
</clipPath>
</defs>
</svg>
