<svg width="20" height="22" viewBox="0 0 20 22" fill="none" xmlns="http://www.w3.org/2000/svg">
<path fill-rule="evenodd" clip-rule="evenodd" d="M10 0C8.06602 0 6.32713 0.55275 5.05174 1.60307C3.76084 2.66616 2.99995 4.19825 2.99988 5.99996L2.99987 6.08277L3.01295 6.16118L3.01297 6.16132L3.01485 6.17415C3.01682 6.18806 3.02005 6.21225 3.02386 6.24578C3.0315 6.31294 3.04136 6.41684 3.04803 6.54998C3.06143 6.81769 3.06146 7.19554 3.00767 7.62599C2.89885 8.49665 2.58101 9.50472 1.7928 10.2929C0.393191 11.6923 0.289165 14.0055 1.64983 15.8447C3.01616 17.6916 5.75666 19 10 19C14.2434 19 16.9839 17.6916 18.3502 15.8447C19.7108 14.0054 19.6067 11.6923 18.2071 10.2929C17.4189 9.50472 17.101 8.49665 16.9922 7.62599C16.9384 7.19554 16.9385 6.81769 16.9519 6.54998C16.9585 6.41684 16.9684 6.31294 16.976 6.24578C16.9798 6.21225 16.9831 6.18806 16.985 6.17415L16.9869 6.1613L16.9869 6.16118L16.987 6.16074L16.9871 6.16042L17 6.08279V6C17 4.19829 16.2392 2.66618 14.9483 1.60308C13.6729 0.552749 11.9341 0 10 0ZM5.01106 6.01985C5.00728 5.98658 5.00366 5.95743 5.0004 5.93263C5.01846 4.76542 5.50474 3.82091 6.32315 3.14693C7.17277 2.44725 8.4339 2 10 2C11.5662 2 12.8273 2.44725 13.6769 3.14692C14.4952 3.82089 14.9815 4.76539 14.9995 5.93261C14.9962 5.95741 14.9926 5.98657 14.9888 6.01985C14.9769 6.12456 14.9633 6.27066 14.9544 6.45002C14.9365 6.80731 14.9365 7.30446 15.0077 7.87401C15.1488 9.00335 15.581 10.4953 16.7929 11.7071C17.3935 12.3077 17.6009 13.4946 16.7423 14.6553C15.8893 15.8084 13.8797 17 10 17C6.12041 17 4.11072 15.8084 3.25768 14.6553C2.39897 13.4945 2.60637 12.3077 3.20695 11.7071C4.41893 10.4953 4.85109 9.00335 4.99223 7.87401C5.06341 7.30446 5.06341 6.80731 5.04553 6.45002C5.03655 6.27066 5.02297 6.12456 5.01106 6.01985ZM10 20C9 20 8 20 8 20.6667C8 21.3333 9 22 10 22C11 22 12 21.3333 12 20.6667C12 20 11 20 10 20Z" fill="#00826C"/>
</svg>
