<svg width="15" height="19" viewBox="0 0 15 19" fill="none" xmlns="http://www.w3.org/2000/svg">
<path d="M1.89054 18.875C1.41138 18.875 1.01138 18.7146 0.690543 18.3937C0.369016 18.0722 0.208252 17.6719 0.208252 17.1927V5.97396C0.208252 5.49479 0.369016 5.09479 0.690543 4.77396C1.01138 4.45243 1.41138 4.29167 1.89054 4.29167H3.85409V3.77083C3.85409 2.75833 4.2086 1.89757 4.91763 1.18854C5.62665 0.479514 6.48742 0.125 7.49992 0.125C8.51242 0.125 9.37318 0.479514 10.0822 1.18854C10.7912 1.89757 11.1458 2.75833 11.1458 3.77083V4.29167H13.1093C13.5885 4.29167 13.9885 4.45243 14.3093 4.77396C14.6308 5.09479 14.7916 5.49479 14.7916 5.97396V17.1927C14.7916 17.6719 14.6312 18.0719 14.3103 18.3927C13.9888 18.7142 13.5885 18.875 13.1093 18.875H1.89054ZM4.89575 4.29167H10.1041V3.77083C10.1041 3.0375 9.85339 2.42014 9.352 1.91875C8.85061 1.41736 8.23325 1.16667 7.49992 1.16667C6.76658 1.16667 6.14922 1.41736 5.64784 1.91875C5.14645 2.42014 4.89575 3.0375 4.89575 3.77083V4.29167ZM10.6249 8.45833C10.7728 8.45833 10.8968 8.40868 10.9968 8.30937C11.0961 8.20938 11.1458 8.08542 11.1458 7.9375V5.33333H10.1041V7.9375C10.1041 8.08542 10.1537 8.20938 10.253 8.30937C10.353 8.40868 10.477 8.45833 10.6249 8.45833ZM4.37492 8.45833C4.52284 8.45833 4.64679 8.40868 4.74679 8.30937C4.8461 8.20938 4.89575 8.08542 4.89575 7.9375V5.33333H3.85409V7.9375C3.85409 8.08542 3.90374 8.20938 4.00304 8.30937C4.10304 8.40868 4.227 8.45833 4.37492 8.45833Z" fill="#00826C"/>
</svg>
