<svg width="15" height="19" viewBox="0 0 15 19" fill="none" xmlns="http://www.w3.org/2000/svg">
<path d="M1.68229 18.75C1.20312 18.75 0.803125 18.5896 0.482291 18.2687C0.160764 17.9472 0 17.5469 0 17.0677V5.84896C0 5.36979 0.160764 4.96979 0.482291 4.64896C0.803125 4.32743 1.20312 4.16667 1.68229 4.16667H3.64583V3.64583C3.64583 2.63333 4.00035 1.77257 4.70937 1.06354C5.4184 0.354514 6.27917 0 7.29167 0C8.30417 0 9.16493 0.354514 9.87396 1.06354C10.583 1.77257 10.9375 2.63333 10.9375 3.64583V4.16667H12.901C13.3802 4.16667 13.7802 4.32743 14.101 4.64896C14.4226 4.96979 14.5833 5.36979 14.5833 5.84896V17.0677C14.5833 17.5469 14.4229 17.9469 14.1021 18.2677C13.7806 18.5892 13.3802 18.75 12.901 18.75H1.68229ZM1.68229 17.7083H12.901C13.0608 17.7083 13.2076 17.6417 13.3417 17.5083C13.475 17.3743 13.5417 17.2274 13.5417 17.0677V5.84896C13.5417 5.68924 13.475 5.54236 13.3417 5.40833C13.2076 5.275 13.0608 5.20833 12.901 5.20833H10.9375V7.8125C10.9375 7.96042 10.8878 8.08438 10.7885 8.18437C10.6885 8.28368 10.5646 8.33333 10.4167 8.33333C10.2687 8.33333 10.1448 8.28368 10.0448 8.18437C9.94549 8.08438 9.89583 7.96042 9.89583 7.8125V5.20833H4.6875V7.8125C4.6875 7.96042 4.63785 8.08438 4.53854 8.18437C4.43854 8.28368 4.31458 8.33333 4.16667 8.33333C4.01875 8.33333 3.89479 8.28368 3.79479 8.18437C3.69549 8.08438 3.64583 7.96042 3.64583 7.8125V5.20833H1.68229C1.52257 5.20833 1.37569 5.275 1.24167 5.40833C1.10833 5.54236 1.04167 5.68924 1.04167 5.84896V17.0677C1.04167 17.2274 1.10833 17.3743 1.24167 17.5083C1.37569 17.6417 1.52257 17.7083 1.68229 17.7083ZM4.6875 4.16667H9.89583V3.64583C9.89583 2.9125 9.64514 2.29514 9.14375 1.79375C8.64236 1.29236 8.025 1.04167 7.29167 1.04167C6.55833 1.04167 5.94097 1.29236 5.43958 1.79375C4.93819 2.29514 4.6875 2.9125 4.6875 3.64583V4.16667Z" fill="#00826C"/>
</svg>
