<svg width="41" height="40" viewBox="0 0 41 40" fill="none" xmlns="http://www.w3.org/2000/svg">
<path d="M0.550294 6.63854C0.500222 3.29011 3.20082 0.548828 6.54962 0.548828H34.2674C37.5461 0.548828 40.2177 3.18075 40.2668 6.45911L40.3682 13.2401C40.4182 16.5885 37.7176 19.3298 34.3688 19.3298H27.1498C26.08 19.3298 25.1483 20.0598 24.8924 21.0986L20.4196 39.2538C20.4039 39.3176 20.3101 39.3062 20.3101 39.2405C20.3101 39.2362 20.3096 39.232 20.3086 39.2278L16.7218 23.9578C16.085 21.2464 13.666 19.3298 10.8808 19.3298H6.65102C3.3723 19.3298 0.700721 16.6979 0.651697 13.4195L0.550294 6.63854Z" fill="#67B4E4"/>
</svg>
