<svg width="24" height="24" viewBox="0 0 24 24" fill="none" xmlns="http://www.w3.org/2000/svg">
<path d="M8 7C8 7.55228 7.55228 8 7 8C6.44772 8 6 7.55228 6 7H8ZM8.63803 2.32698L9.09202 3.21799L8.63803 2.32698ZM7.32698 3.63803L8.21799 4.09202L7.32698 3.63803ZM16 7V6.8H18V7H16ZM12.2 3H11.8V1H12.2V3ZM8 6.8V7H6V6.8H8ZM11.8 3C10.9434 3 10.3611 3.00078 9.91104 3.03755C9.47262 3.07337 9.24842 3.1383 9.09202 3.21799L8.18404 1.43597C8.66937 1.18868 9.18608 1.09012 9.74817 1.04419C10.2986 0.999222 10.9764 1 11.8 1V3ZM6 6.8C6 5.97642 5.99922 5.2986 6.04419 4.74817C6.09012 4.18608 6.18868 3.66937 6.43597 3.18404L8.21799 4.09202C8.1383 4.24842 8.07337 4.47262 8.03755 4.91104C8.00078 5.36113 8 5.94342 8 6.8H6ZM9.09202 3.21799C8.71569 3.40973 8.40973 3.71569 8.21799 4.09202L6.43597 3.18404C6.81947 2.43139 7.43139 1.81947 8.18404 1.43597L9.09202 3.21799ZM16 6.8C16 5.94342 15.9992 5.36113 15.9624 4.91104C15.9266 4.47262 15.8617 4.24842 15.782 4.09202L17.564 3.18404C17.8113 3.66937 17.9099 4.18608 17.9558 4.74817C18.0008 5.2986 18 5.97642 18 6.8H16ZM12.2 1C13.0236 1 13.7014 0.999222 14.2518 1.04419C14.8139 1.09012 15.3306 1.18868 15.816 1.43597L14.908 3.21799C14.7516 3.1383 14.5274 3.07337 14.089 3.03755C13.6389 3.00078 13.0566 3 12.2 3V1ZM15.782 4.09202C15.5903 3.71569 15.2843 3.40973 14.908 3.21799L15.816 1.43597C16.5686 1.81947 17.1805 2.43139 17.564 3.18404L15.782 4.09202Z" fill="#00826C"/>
<path fill-rule="evenodd" clip-rule="evenodd" d="M17.2941 8.01446C17.1597 8.00122 16.9881 8.00001 16.5 8.00001H12H9.4C8.26339 8.00001 7.47108 8.00079 6.85424 8.05118C6.24907 8.10063 5.90138 8.1928 5.63803 8.32699C5.07354 8.61461 4.6146 9.07355 4.32698 9.63804C4.19279 9.90139 4.10062 10.2491 4.05118 10.8542C4.00078 11.4711 4 12.2634 4 13.4V15.6C4 16.7366 4.00078 17.5289 4.05118 18.1458C4.10062 18.7509 4.19279 19.0986 4.32698 19.362C4.6146 19.9265 5.07354 20.3854 5.63803 20.673C5.90138 20.8072 6.24907 20.8994 6.85424 20.9488C7.47108 20.9992 8.26339 21 9.4 21H14.6C15.7366 21 16.5289 20.9992 17.1458 20.9488C17.7509 20.8994 18.0986 20.8072 18.362 20.673C18.9265 20.3854 19.3854 19.9265 19.673 19.362C19.8072 19.0986 19.8994 18.7509 19.9488 18.1458C19.9992 17.5289 20 16.7366 20 15.6V11.5C20 11.0119 19.9988 10.8403 19.9856 10.706C19.8453 9.28163 18.7184 8.15474 17.2941 8.01446ZM16.5579 6C16.9665 5.99995 17.2447 5.99992 17.4901 6.02409C19.864 6.25789 21.7421 8.13604 21.9759 10.5099C22.0001 10.7553 22.0001 11.0335 22 11.4422L22 11.5V15.6V15.6428C22 16.7266 22 17.6008 21.9422 18.3086C21.8826 19.0375 21.7568 19.6777 21.455 20.27C20.9757 21.2108 20.2108 21.9757 19.27 22.455C18.6777 22.7568 18.0375 22.8826 17.3086 22.9422C16.6007 23 15.7266 23 14.6427 23H14.6H9.4H9.35727C8.27345 23 7.39927 23 6.69138 22.9422C5.96253 22.8826 5.32234 22.7568 4.73005 22.455C3.78924 21.9757 3.02433 21.2108 2.54497 20.27C2.24318 19.6777 2.11737 19.0375 2.05782 18.3086C1.99998 17.6008 1.99999 16.7266 2 15.6428L2 15.6V13.4L2 13.3572C1.99999 12.2734 1.99998 11.3993 2.05782 10.6914C2.11737 9.96254 2.24318 9.32235 2.54497 8.73006C3.02433 7.78925 3.78924 7.02434 4.73005 6.54498C5.32234 6.24319 5.96253 6.11738 6.69138 6.05783C7.39926 5.99999 8.27341 6 9.35719 6.00001L9.4 6.00001H12H16.5L16.5579 6Z" fill="#00826C"/>
<path d="M12 12L12 15" stroke="#00826C" stroke-width="2" stroke-linecap="round" stroke-linejoin="round"/>
</svg>
