<svg width="17" height="21" viewBox="0 0 17 21" fill="none" xmlns="http://www.w3.org/2000/svg">
<path d="M8.33333 0C5.45677 0 3.125 2.33177 3.125 5.20833C3.125 8.0849 5.45677 10.4167 8.33333 10.4167C11.2099 10.4167 13.5417 8.0849 13.5417 5.20833C13.5417 2.33177 11.2099 0 8.33333 0ZM2.21354 12.5C1.62656 12.5 1.06362 12.7331 0.648515 13.1481C0.233411 13.5632 0.000138112 14.126 0 14.713V15.1042C0 17.0599 1.01146 18.5245 2.5625 19.4688C4.08854 20.3974 6.13854 20.8333 8.33333 20.8333C10.5281 20.8333 12.5781 20.3974 14.1042 19.4688C15.6552 18.5245 16.6667 17.0599 16.6667 15.1042V14.713C16.6667 14.4224 16.6094 14.1345 16.4982 13.866C16.3869 13.5975 16.2239 13.3535 16.0183 13.148C15.8127 12.9425 15.5687 12.7795 15.3002 12.6683C15.0316 12.5571 14.7438 12.4999 14.4531 12.5H2.21354Z" fill="#00826C"/>
</svg>
