<svg width="19" height="22" viewBox="0 0 19 22" fill="none" xmlns="http://www.w3.org/2000/svg">
<path d="M14.8438 5.46875C14.8438 6.91915 14.2676 8.31015 13.242 9.33574C12.2164 10.3613 10.8254 10.9375 9.375 10.9375C7.9246 10.9375 6.5336 10.3613 5.50801 9.33574C4.48242 8.31015 3.90625 6.91915 3.90625 5.46875C3.90625 4.01835 4.48242 2.62735 5.50801 1.60176C6.5336 0.57617 7.9246 0 9.375 0C10.8254 0 12.2164 0.57617 13.242 1.60176C14.2676 2.62735 14.8438 4.01835 14.8438 5.46875ZM13.2812 5.46875C13.2812 4.43275 12.8697 3.43918 12.1371 2.70661C11.4046 1.97405 10.411 1.5625 9.375 1.5625C8.339 1.5625 7.34543 1.97405 6.61286 2.70661C5.8803 3.43918 5.46875 4.43275 5.46875 5.46875C5.46875 6.50475 5.8803 7.49832 6.61286 8.23089C7.34543 8.96345 8.339 9.375 9.375 9.375C10.411 9.375 11.4046 8.96345 12.1371 8.23089C12.8697 7.49832 13.2812 6.50475 13.2812 5.46875ZM2.73438 12.5C2.00917 12.5 1.31367 12.7881 0.80088 13.3009C0.288085 13.8137 0 14.5092 0 15.2344V15.625C0 17.4945 1.18984 19.0758 2.87891 20.1508C4.57734 21.232 6.87656 21.875 9.375 21.875C11.8734 21.875 14.1719 21.232 15.8711 20.1508C17.5602 19.0758 18.75 17.4945 18.75 15.625V15.2344C18.75 14.5092 18.4619 13.8137 17.9491 13.3009C17.4363 12.7881 16.7408 12.5 16.0156 12.5H2.73438ZM1.5625 15.2344C1.5625 14.9236 1.68596 14.6255 1.90573 14.4057C2.1255 14.186 2.42357 14.0625 2.73438 14.0625H16.0156C16.3264 14.0625 16.6245 14.186 16.8443 14.4057C17.064 14.6255 17.1875 14.9236 17.1875 15.2344V15.625C17.1875 16.7758 16.4531 17.9289 15.032 18.8328C13.6203 19.7313 11.6227 20.3125 9.375 20.3125C7.12734 20.3125 5.12969 19.7313 3.71797 18.8328C2.29609 17.9297 1.5625 16.775 1.5625 15.625V15.2344Z" fill="#00826C"/>
</svg>
