<svg width="34" height="35" viewBox="0 0 34 35" fill="none" xmlns="http://www.w3.org/2000/svg">
<path fill-rule="evenodd" clip-rule="evenodd" d="M20.1276 1.31645C18.3132 -0.438816 15.4337 -0.438815 13.6193 1.31645L12.6425 2.26137C12.2967 2.59595 11.8158 2.7522 11.3393 2.68481L9.99368 2.49448C7.49407 2.14092 5.16449 3.83346 4.72832 6.31998L4.49352 7.65857C4.41037 8.13253 4.11316 8.54161 3.68808 8.76715L2.48758 9.40411C0.25754 10.5873 -0.632282 13.3259 0.476388 15.5939L1.07323 16.8149C1.28455 17.2472 1.28455 17.7528 1.07323 18.1851L0.476388 19.4061C-0.632282 21.6741 0.25754 24.4127 2.48758 25.5959L3.68808 26.2328C4.11316 26.4584 4.41037 26.8675 4.49352 27.3414L4.72832 28.68C5.16449 31.1665 7.49407 32.8591 9.99368 32.5055L11.3393 32.3152C11.8158 32.2478 12.2967 32.404 12.6425 32.7386L13.6193 33.6835C15.4337 35.4388 18.3132 35.4388 20.1276 33.6835L21.1044 32.7386C21.4502 32.404 21.9311 32.2478 22.4076 32.3152L23.7532 32.5055C26.2528 32.8591 28.5824 31.1665 29.0186 28.68L29.2534 27.3414C29.3365 26.8675 29.6337 26.4584 30.0588 26.2328L31.2593 25.5959C33.4894 24.4127 34.3792 21.6741 33.2705 19.4061L32.6737 18.1851C32.4623 17.7528 32.4623 17.2472 32.6737 16.8149L33.2705 15.5939C34.3792 13.3259 33.4894 10.5873 31.2593 9.40411L30.0588 8.76715C29.6337 8.54161 29.3365 8.13253 29.2534 7.65857L29.0186 6.31998C28.5824 3.83346 26.2528 2.14092 23.7532 2.49448L22.4076 2.68481C21.9311 2.7522 21.4502 2.59595 21.1044 2.26137L20.1276 1.31645Z" fill="#E13304"/>
</svg>
