<svg width="24" height="22" viewBox="0 0 24 22" fill="none" xmlns="http://www.w3.org/2000/svg">
<path fill-rule="evenodd" clip-rule="evenodd" d="M11.7671 2.42978C11.92 2.3932 12.0794 2.3932 12.2323 2.42978C12.3638 2.46123 12.5123 2.54229 13.2182 3.01183L19.7996 7.38977V13.0003C19.7996 14.4169 19.7988 15.4192 19.7348 16.2028C19.6718 16.9748 19.5523 17.4459 19.3637 17.8162C18.9802 18.5689 18.3682 19.1808 17.6156 19.5643C17.2453 19.753 16.7741 19.8724 16.0022 19.9355C15.2186 19.9995 14.2163 20.0003 12.7996 20.0003H11.1997C9.78306 20.0003 8.78073 19.9995 7.99713 19.9355C7.22521 19.8724 6.75404 19.753 6.38373 19.5643C5.63108 19.1808 5.01916 18.5689 4.63567 17.8162C4.44698 17.4459 4.32756 16.9748 4.26449 16.2028C4.20047 15.4192 4.19969 14.4169 4.19969 13.0003L4.19968 7.38978L10.7812 3.01182C11.4871 2.54229 11.6356 2.46123 11.7671 2.42978ZM22.4458 9.14996L21.7996 8.72016V13.0003V13.0441V13.0442C21.7996 14.4071 21.7996 15.4911 21.7282 16.3657C21.655 17.2613 21.5019 18.025 21.1457 18.7242C20.5704 19.8532 19.6525 20.7711 18.5236 21.3463C17.8243 21.7026 17.0606 21.8557 16.1651 21.9288C15.2905 22.0003 14.2064 22.0003 12.8434 22.0003H12.8433H12.7996H11.1997H11.156H11.1559C9.79288 22.0003 8.70886 22.0003 7.83427 21.9288C6.93867 21.8557 6.175 21.7026 5.47575 21.3463C4.34678 20.7711 3.42889 19.8532 2.85365 18.7242C2.49737 18.025 2.34431 17.2613 2.27113 16.3657C2.19968 15.4911 2.19968 14.4071 2.19969 13.0441V13.044L2.19969 13.0003L2.19969 8.72012L1.55346 9.14997C1.09361 9.45585 0.472869 9.33103 0.166993 8.87118C-0.138882 8.41134 -0.0140636 7.7906 0.445783 7.48472L2.64584 6.02132L2.64585 6.02131L9.67354 1.34658L9.78493 1.27234C10.3133 0.919807 10.7776 0.610051 11.3018 0.484654C11.7606 0.374906 12.2388 0.374907 12.6976 0.484657C13.2219 0.610056 13.6861 0.919815 14.2145 1.27235L14.3259 1.3466L21.3535 6.02132L23.5535 7.48473C24.0133 7.79062 24.1381 8.41136 23.8322 8.8712C23.5263 9.33104 22.9056 9.45585 22.4458 9.14996ZM9 13C9 11.3431 10.3431 10 12 10C13.6569 10 15 11.3431 15 13C15 14.6569 13.6569 16 12 16C10.3431 16 9 14.6569 9 13ZM12 8C9.23858 8 7 10.2386 7 13C7 15.7614 9.23858 18 12 18C14.7614 18 17 15.7614 17 13C17 10.2386 14.7614 8 12 8Z" fill="#00826C"/>
</svg>
