<svg width="22" height="18" viewBox="0 0 22 18" fill="none" xmlns="http://www.w3.org/2000/svg">
<path fill-rule="evenodd" clip-rule="evenodd" d="M8.2 0H8.15667H8.15666C6.93329 -8.70232e-06 5.95421 -1.56686e-05 5.16298 0.0646304C4.35075 0.130992 3.64882 0.270429 3.00305 0.599465C1.96816 1.12677 1.12677 1.96816 0.599465 3.00305C0.270429 3.64882 0.130992 4.35075 0.0646304 5.16298C-1.56668e-05 5.95421 -8.70232e-06 6.93329 0 8.15666V8.15667V8.2V9.8V9.84333V9.84334C-8.70232e-06 11.0667 -1.56686e-05 12.0458 0.0646304 12.837C0.130992 13.6492 0.270429 14.3512 0.599465 14.9969C1.12677 16.0318 1.96816 16.8732 3.00305 17.4005C3.64882 17.7296 4.35075 17.869 5.16298 17.9354C5.9542 18 6.93328 18 8.15664 18H8.2H13.8H13.8434C15.0667 18 16.0458 18 16.837 17.9354C17.6492 17.869 18.3512 17.7296 18.9969 17.4005C20.0318 16.8732 20.8732 16.0318 21.4005 14.9969C21.7296 14.3512 21.869 13.6492 21.9354 12.837C22 12.0458 22 11.0667 22 9.84336V9.8V8.2V8.15664C22 6.93328 22 5.9542 21.9354 5.16298C21.869 4.35075 21.7296 3.64882 21.4005 3.00305C20.8732 1.96816 20.0318 1.12677 18.9969 0.599465C18.3512 0.270429 17.6492 0.130992 16.837 0.0646304C16.0458 -1.56668e-05 15.0667 -8.70232e-06 13.8433 0H13.8433H13.8H8.2ZM3.91103 2.38148C4.22787 2.22004 4.6373 2.11424 5.32584 2.05799C6.02606 2.00078 6.92338 2 8.2 2H13.8C15.0766 2 15.9739 2.00078 16.6742 2.05799C17.3627 2.11424 17.7721 2.22004 18.089 2.38148C18.7475 2.71703 19.283 3.25247 19.6185 3.91103C19.78 4.22787 19.8858 4.6373 19.942 5.32584C19.9992 6.02606 20 6.92338 20 8.2V9.8C20 11.0766 19.9992 11.9739 19.942 12.6742C19.8858 13.3627 19.78 13.7721 19.6185 14.089C19.283 14.7475 18.7475 15.283 18.089 15.6185C17.7721 15.78 17.3627 15.8858 16.6742 15.942C15.9739 15.9992 15.0766 16 13.8 16H8.2C6.92338 16 6.02606 15.9992 5.32584 15.942C4.6373 15.8858 4.22787 15.78 3.91103 15.6185C3.25247 15.283 2.71703 14.7475 2.38148 14.089C2.22004 13.7721 2.11424 13.3627 2.05799 12.6742C2.00078 11.9739 2 11.0766 2 9.8V8.2C2 6.92338 2.00078 6.02606 2.05799 5.32584C2.11424 4.6373 2.22004 4.22787 2.38148 3.91103C2.71703 3.25247 3.25247 2.71703 3.91103 2.38148ZM12.75 9C12.75 9.41421 12.4142 9.75 12 9.75H4C3.58579 9.75 3.25 9.41421 3.25 9C3.25 8.58579 3.58579 8.25 4 8.25H12C12.4142 8.25 12.75 8.58579 12.75 9ZM9.25 13C9.25 12.5858 9.58579 12.25 10 12.25L18 12.25C18.4142 12.25 18.75 12.5858 18.75 13C18.75 13.4142 18.4142 13.75 18 13.75H10C9.58579 13.75 9.25 13.4142 9.25 13ZM4 12.25C3.58579 12.25 3.25 12.5858 3.25 13C3.25 13.4142 3.58579 13.75 4 13.75H6C6.41421 13.75 6.75 13.4142 6.75 13C6.75 12.5858 6.41421 12.25 6 12.25H4ZM18.75 9C18.75 9.41421 18.4142 9.75 18 9.75H16C15.5858 9.75 15.25 9.41421 15.25 9C15.25 8.58579 15.5858 8.25 16 8.25H18C18.4142 8.25 18.75 8.58579 18.75 9Z" fill="#00826C"/>
</svg>
