<svg width="22" height="22" viewBox="0 0 22 22" fill="none" xmlns="http://www.w3.org/2000/svg">
<path fill-rule="evenodd" clip-rule="evenodd" d="M7.3572 7.34676e-07H7.4H14.6H14.6428H14.6429C15.7266 -7.61026e-06 16.6008 -1.43407e-05 17.3086 0.0578207C18.0375 0.11737 18.6777 0.243183 19.27 0.54497C20.2108 1.02434 20.9757 1.78924 21.455 2.73005C21.7568 3.32234 21.8826 3.96253 21.9422 4.69138C22 5.39923 22 6.27334 22 7.35707V7.35717V7.4V11V12.2852V12.3571V12.3572V12.4V14.6V14.6428V14.6429C22 15.7267 22 16.6008 21.9422 17.3086C21.8826 18.0375 21.7568 18.6777 21.455 19.27C21.0056 20.152 20.3053 20.8794 19.4443 21.3618C19.3869 21.394 19.3288 21.4251 19.27 21.455C18.6777 21.7568 18.0375 21.8826 17.3086 21.9422C16.6008 22 15.7267 22 14.6429 22H14.6428H14.6H7.4H7.35717H7.35707C6.27334 22 5.39923 22 4.69138 21.9422C3.96253 21.8826 3.32234 21.7568 2.73005 21.455C1.78924 20.9757 1.02434 20.2108 0.544968 19.27C0.243181 18.6777 0.117368 18.0375 0.0578185 17.3086C-1.75089e-05 16.6007 -9.52191e-06 15.7266 2.53247e-07 14.6428V14.6V12.4V12.3572V12.2845V11V7.4V7.3572V7.35719C-9.52194e-06 6.27341 -1.74063e-05 5.39925 0.0578185 4.69138C0.117368 3.96253 0.243181 3.32234 0.544968 2.73005C1.02434 1.78924 1.78924 1.02433 2.73005 0.544968C3.32234 0.243181 3.96253 0.117368 4.69138 0.0578187C5.39926 -1.7143e-05 6.27341 -9.15973e-06 7.35719 7.34676e-07H7.3572ZM2.00012 12C2.00001 12.1284 2 12.2617 2 12.4V14.6C2 15.5945 2.0006 16.3255 2.03451 16.9059C2.03935 16.9888 2.04488 17.0687 2.05118 17.1458C2.09444 17.6753 2.17042 18.0077 2.27863 18.2589C2.29409 18.2948 2.31021 18.3291 2.32698 18.362C2.59663 18.8912 3.01684 19.3276 3.53344 19.6171C3.56788 19.6364 3.60275 19.655 3.63803 19.673C3.88493 19.7988 4.20594 19.8877 4.74375 19.9391C4.7796 19.9425 4.81642 19.9457 4.85424 19.9488C5.43253 19.9961 6.16504 19.9997 7.19088 20L7.4 20H14.6C15.5945 20 16.3255 19.9994 16.9059 19.9655C16.9888 19.9606 17.0687 19.9551 17.1458 19.9488C17.6753 19.9056 18.0077 19.8296 18.2589 19.7214C18.2948 19.7059 18.3291 19.6898 18.362 19.673C18.9265 19.3854 19.3854 18.9265 19.673 18.362C19.6898 18.3291 19.7059 18.2948 19.7214 18.2589C19.8296 18.0077 19.9056 17.6753 19.9488 17.1458C19.9551 17.0687 19.9606 16.9888 19.9655 16.9059C19.9994 16.3255 20 15.5945 20 14.6V12.4C20 12.2617 20 12.1284 19.9999 12L16 12C15.7922 12 15.6398 12.0633 15.4477 12.228C15.2592 12.3895 15.0987 12.5857 14.8684 12.8669C14.8003 12.9501 14.7261 13.0408 14.6432 13.1402C14.3157 13.5332 13.8881 14.0115 13.293 14.3809C12.678 14.7626 11.9322 15 11 15C10.0678 15 9.32199 14.7626 8.70701 14.3809C8.1119 14.0115 7.68425 13.5332 7.35678 13.1402C7.27392 13.0408 7.1997 12.9501 7.13157 12.8669C6.90135 12.5857 6.74077 12.3895 6.55233 12.228C6.36022 12.0633 6.2078 12 6 12H2.00012ZM19.9596 10L16 10C15.2078 10 14.6102 10.3117 14.1461 10.7095C13.8088 10.9986 13.503 11.3743 13.2594 11.6737L13.2591 11.674C13.2052 11.7403 13.1543 11.8028 13.1068 11.8598C12.8093 12.2168 12.5494 12.4885 12.2383 12.6816C11.947 12.8624 11.5678 13 11 13C10.4322 13 10.053 12.8624 9.76174 12.6816C9.4506 12.4885 9.19075 12.2168 8.89322 11.8598C8.84564 11.8027 8.79467 11.7401 8.74064 11.6737C8.49699 11.3743 8.19118 10.9986 7.85392 10.7095C7.38978 10.3117 6.7922 10 6 10H2.04039C2.04371 9.95032 2.04729 9.90176 2.05118 9.85424C2.10062 9.24907 2.19279 8.90138 2.32698 8.63803C2.6146 8.07354 3.07354 7.6146 3.63803 7.32698C3.90139 7.19279 4.24907 7.10062 4.85424 7.05118C5.47108 7.00078 6.2634 7 7.4 7L14.6 7C15.7366 7 16.5289 7.00078 17.1458 7.05118C17.7509 7.10062 18.0986 7.1928 18.362 7.32698C18.9265 7.6146 19.3854 8.07354 19.673 8.63803C19.8072 8.90139 19.8994 9.24907 19.9488 9.85424C19.9527 9.90176 19.9563 9.95032 19.9596 10ZM19.9488 4.85424C19.9753 5.17818 19.9881 5.55051 19.9942 5.99569C19.7672 5.82592 19.525 5.67495 19.27 5.54497C18.6777 5.24318 18.0375 5.11737 17.3086 5.05782C16.6007 4.99998 15.7266 4.99999 14.6428 5H14.6L7.4 5L7.3572 5C6.27341 4.99999 5.39926 4.99998 4.69138 5.05782C3.96253 5.11737 3.32234 5.24318 2.73005 5.54497C2.47496 5.67494 2.2328 5.82591 2.00576 5.99568C2.01193 5.55051 2.02471 5.17818 2.05118 4.85424C2.10062 4.24907 2.19279 3.90138 2.32698 3.63803C2.6146 3.07354 3.07354 2.6146 3.63803 2.32698C3.90139 2.19279 4.24907 2.10062 4.85424 2.05118C5.47108 2.00078 6.2634 2 7.4 2L14.6 2C15.7366 2 16.5289 2.00078 17.1458 2.05118C17.7509 2.10062 18.0986 2.1928 18.362 2.32698C18.9265 2.6146 19.3854 3.07355 19.673 3.63803C19.8072 3.90139 19.8994 4.24908 19.9488 4.85424Z" fill="#00826C"/>
</svg>
