<svg width="22" height="20" viewBox="0 0 22 20" fill="none" xmlns="http://www.w3.org/2000/svg">
<path fill-rule="evenodd" clip-rule="evenodd" d="M13.6997 2.38541C13.1159 2.67931 12.4786 3.19532 11.8 4.10006C11.6111 4.35187 11.3148 4.50006 11 4.50006C10.6852 4.50006 10.3889 4.35187 10.2 4.10006C9.52501 3.20007 8.8832 2.68847 8.29474 2.39562C7.70891 2.10408 7.11844 2.00064 6.5 2.00064C4.1085 2.00064 2 3.99491 2 7.00045C2 10.0519 4.09076 12.7976 6.46962 14.8714C7.63662 15.8887 8.82173 16.6989 9.74207 17.2526C10.2022 17.5294 10.5886 17.7376 10.866 17.8732C10.9153 17.8973 10.96 17.9185 11 17.937C11.04 17.9185 11.0847 17.8973 11.134 17.8732C11.4114 17.7376 11.7978 17.5294 12.2579 17.2526C13.1783 16.6989 14.3634 15.8887 15.5304 14.8714C17.9092 12.7976 20 10.0519 20 7.00044C20 4.00846 17.901 2.03549 15.4855 2.00054C14.8631 1.99153 14.2786 2.09397 13.6997 2.38541ZM12.8003 0.599011C13.7214 0.135321 14.6369 -0.0119509 15.5145 0.000746362C19.099 0.0526117 22 2.99268 22 7.00044C22 10.9488 19.3408 14.2029 16.8446 16.379C15.5741 17.4866 14.2905 18.3638 13.2889 18.9664C12.7881 19.2677 12.3504 19.5047 12.0124 19.6699C11.8448 19.7519 11.6918 19.8211 11.562 19.8723C11.498 19.8976 11.4276 19.9233 11.3569 19.9443L11.3554 19.9447C11.3107 19.958 11.1687 20.0001 11 20.0001C10.8313 20.0001 10.6893 19.958 10.6446 19.9447L10.6432 19.9443C10.5724 19.9233 10.502 19.8976 10.438 19.8723C10.3083 19.8211 10.1552 19.7519 9.98757 19.6699C9.64965 19.5048 9.21192 19.2677 8.71106 18.9664C7.70953 18.3638 6.42589 17.4866 5.15538 16.379C2.65924 14.2029 0 10.9488 0 7.00045C0 3.00623 2.89149 0.000640921 6.5 0.000640921C7.35561 0.000640921 8.26514 0.146914 9.1858 0.605085C9.81174 0.916588 10.4159 1.35884 10.9985 1.95742C11.5769 1.35893 12.1762 0.913226 12.8003 0.599011Z" fill="#00826C"/>
</svg>
